# xmcd CD database file
#
# Track frame offsets:
#	150
#	19072
#	39817
#	61362
#	82110
#	107214
#	138379
#	164275
#	191300
#	213150
#
# Disc length: 3090 seconds
#
# Revision: 0
# Processed by: cddbd v1.5.2PL0 Copyright (c) Steve Scherf et al.
# Submitted via: CDex 1.51
#
DISCID=7e0c100a
DTITLE=Various Artists Salsa - la Habana de Noce II [CD2]
DYEAR=2006
DGENRE=Salsa
TTITLE0=No te pases
TTITLE1=Niña
TTITLE2=Detu a tu
TTITLE3=Mi esterella
TTITLE4=Te equivocas
TTITLE5=Pasar de todo
TTITLE6=3 de Azucar y 2 de Café
TTITLE7=Los Feos
TTITLE8=El Puro
TTITLE9=Añoranza por la Conga
EXTD=YEAR: 2006
EXTT0=
EXTT1=
EXTT2=
EXTT3=
EXTT4=
EXTT5=
EXTT6=
EXTT7=
EXTT8=
EXTT9=
PLAYORDER=
